<svg width="21" height="14" viewBox="0 0 21 14" fill="none" xmlns="http://www.w3.org/2000/svg">
<path d="M0.767081 0.364282C0.390763 0.484383 0.122536 0.756613 0.0344621 1.11291C0.00643843 1.23702 -0.0055717 3.06656 0.00243506 7.2541L0.0144452 13.2191L0.134547 13.4353C0.202604 13.5554 0.326709 13.7035 0.41078 13.7676C0.75507 14.0158 0.0865056 13.9998 10.2431 13.9998C20.3997 13.9998 19.7311 14.0158 20.0754 13.7676C20.1595 13.7035 20.2876 13.5554 20.3516 13.4353L20.4717 13.2191V7.15401V1.08889L20.3516 0.872711C20.2876 0.75261 20.1595 0.604485 20.0754 0.540431C19.7311 0.292221 20.4037 0.308235 10.2271 0.312238C2.70071 0.312238 0.903195 0.324248 0.767081 0.364282ZM18.9704 1.16496C18.9384 1.19298 17.0688 2.59817 14.8189 4.28359C12.0766 6.34133 10.6794 7.36219 10.5754 7.39021C10.3792 7.44626 10.107 7.44626 9.9108 7.39021C9.80671 7.36219 8.40953 6.34133 5.66722 4.28359C3.41732 2.59817 1.54774 1.19298 1.51571 1.16496C1.46767 1.11692 2.77277 1.10891 10.2431 1.10891C17.7134 1.10891 19.0185 1.11692 18.9704 1.16496ZM5.11875 4.85207C7.44071 6.59354 9.41838 8.05077 9.51446 8.0868C9.61055 8.12683 9.81071 8.17888 9.96284 8.2029C10.2991 8.25895 10.7115 8.2029 11.0237 8.05878C11.1318 8.00673 13.1255 6.53749 15.4475 4.79602L19.671 1.62535L19.683 4.36766C19.6871 5.87693 19.6871 8.34702 19.683 9.85229L19.671 12.5946L17.4492 9.85229C16.2281 8.34302 15.1993 7.08996 15.1632 7.06994C15.0551 7.01389 14.855 7.0259 14.7469 7.09797C14.6348 7.17403 14.5587 7.36619 14.5907 7.50231C14.6068 7.55835 15.6316 8.85945 16.8727 10.3927L19.1306 13.1791L14.6868 13.1911C12.2408 13.1951 8.24539 13.1951 5.79933 13.1911L1.35558 13.1791L3.61348 10.3927C4.85453 8.85945 5.8794 7.55835 5.89541 7.50231C5.92744 7.36619 5.85137 7.17403 5.73928 7.09797C5.63919 7.03391 5.45504 7.01389 5.33894 7.05793C5.30691 7.07395 4.28205 8.31099 3.06902 9.81226C1.856 11.3095 0.847148 12.5546 0.831135 12.5746C0.811118 12.5986 0.795104 10.2366 0.795104 7.11798C0.795104 2.73428 0.807114 1.62935 0.847148 1.65337C0.871168 1.67339 2.79679 3.1106 5.11875 4.85207Z" fill="white"/>
</svg>
